<svg xmlns="http://www.w3.org/2000/svg" viewBox="0 0 52.11 49.11"><defs><style>.cls-1{fill:none;}.cls-2{fill:#fff;stroke:#fffdff;stroke-miterlimit:10;}</style></defs><g id="Layer_2" data-name="Layer 2"><g id="Layer_1-2" data-name="Layer 1"><rect class="cls-1" width="52.11" height="49.11"/><line class="cls-2" x1="14.86" y1="11.13" x2="44.01" y2="11.13"/><path class="cls-2" d="M45.51,11.13a1.5,1.5,0,0,1-1.5,1.5H14.87a1.5,1.5,0,0,1,0-3H44A1.5,1.5,0,0,1,45.51,11.13Z"/><line class="cls-2" x1="14.86" y1="21.27" x2="44.01" y2="21.27"/><path class="cls-2" d="M45.51,21.27a1.5,1.5,0,0,1-1.5,1.5H14.87a1.5,1.5,0,0,1,0-3H44A1.5,1.5,0,0,1,45.51,21.27Z"/><line class="cls-2" x1="14.86" y1="38.95" x2="44.01" y2="38.95"/><path class="cls-2" d="M45.51,38.94a1.5,1.5,0,0,1-1.5,1.5H14.87a1.5,1.5,0,1,1,0-3H44A1.5,1.5,0,0,1,45.51,38.94Z"/><line class="cls-2" x1="14.86" y1="30.11" x2="44.01" y2="30.11"/><path class="cls-2" d="M45.51,30.1A1.5,1.5,0,0,1,44,31.6H14.87a1.5,1.5,0,1,1,0-3H44A1.5,1.5,0,0,1,45.51,30.1Z"/><line class="cls-2" x1="6.63" y1="21.27" x2="6.63" y2="21.27"/><path class="cls-2" d="M8.14,21.27a1.39,1.39,0,0,1-.12.57,1.31,1.31,0,0,1-.32.48,1.33,1.33,0,0,1-.49.33,1.39,1.39,0,0,1-.57.12,1.47,1.47,0,0,1-.58-.12,1.29,1.29,0,0,1-.48-.33,1.47,1.47,0,0,1-.33-.48,1.56,1.56,0,0,1-.11-.57,1.53,1.53,0,0,1,0-.3c0-.09,0-.19.08-.28s.09-.17.14-.26a2,2,0,0,1,.19-.22,1.55,1.55,0,0,1,2.12,0,2,2,0,0,1,.19.22,1.58,1.58,0,0,1,.13.26,1.41,1.41,0,0,1,.12.58Z"/><line class="cls-2" x1="6.63" y1="11.13" x2="6.63" y2="11.13"/><path class="cls-2" d="M8.14,11.13A1.39,1.39,0,0,1,8,11.7a1.43,1.43,0,0,1-.32.49,1.52,1.52,0,0,1-1.06.44,1.5,1.5,0,0,1-1.06-.44,1.63,1.63,0,0,1-.33-.49,1.56,1.56,0,0,1-.11-.57,1.36,1.36,0,0,1,0-.29c0-.1,0-.19.08-.29a2,2,0,0,1,.14-.25,1.06,1.06,0,0,1,.19-.23l.22-.19.26-.14.28-.08a1.52,1.52,0,0,1,1.36.41,1,1,0,0,1,.18.23.89.89,0,0,1,.14.25,1.61,1.61,0,0,1,.09.29A1.36,1.36,0,0,1,8.14,11.13Z"/><line class="cls-2" x1="6.63" y1="30.11" x2="6.63" y2="30.11"/><path class="cls-2" d="M8.14,30.1a1.5,1.5,0,0,1-.44,1.06,1.46,1.46,0,0,1-1.06.44,1.43,1.43,0,0,1-.58-.11,1.58,1.58,0,0,1-.48-.33,1.44,1.44,0,0,1-.44-1.06,1.5,1.5,0,0,1,0-.29,2.29,2.29,0,0,1,.08-.28,2.15,2.15,0,0,1,.14-.26A2.11,2.11,0,0,1,5.58,29,1.55,1.55,0,0,1,7.7,29a1.3,1.3,0,0,1,.18.23.94.94,0,0,1,.14.26,1.31,1.31,0,0,1,.09.28A1.5,1.5,0,0,1,8.14,30.1Z"/><line class="cls-2" x1="6.63" y1="38.95" x2="6.63" y2="38.95"/><path class="cls-2" d="M8.14,38.94a1.5,1.5,0,0,1-1.5,1.5,1.62,1.62,0,0,1-.58-.11A1.58,1.58,0,0,1,5.58,40a1.46,1.46,0,0,1-.44-1.06,1.52,1.52,0,0,1,.44-1.06l.22-.19a1.58,1.58,0,0,1,.26-.13,1.52,1.52,0,0,1,.28-.09,1.47,1.47,0,0,1,.59,0,1.31,1.31,0,0,1,.28.09,1.26,1.26,0,0,1,.26.13,2.11,2.11,0,0,1,.23.19A1.52,1.52,0,0,1,8.14,38.94Z"/></g></g></svg>