<svg xmlns="http://www.w3.org/2000/svg" viewBox="0 0 44.05 49.11"><defs><style>.cls-1{fill:none;}.cls-2{fill:#fff;}</style></defs><g id="Layer_2" data-name="Layer 2"><g id="Layer_1-2" data-name="Layer 1"><rect class="cls-1" width="44.05" height="49.11"/><path class="cls-2" d="M22.3,4.9A12.49,12.49,0,0,0,9.82,17.37c0,3.15,2.4,7,5.17,11.4,3.11,5,6.63,10.63,6.63,15.67a.68.68,0,1,0,1.36,0c0-5,3.53-10.69,6.64-15.67,2.76-4.42,5.16-8.25,5.16-11.4A12.49,12.49,0,0,0,22.3,4.9Zm1,17.89a5,5,0,1,1,3.95-3.95A5,5,0,0,1,23.29,22.79Z"/></g></g></svg>