<?xml version="1.0" encoding="utf-8"?>
<!-- Generator: Adobe Illustrator 24.3.0, SVG Export Plug-In . SVG Version: 6.00 Build 0)  -->
<svg version="1.1" id="Layer_1" xmlns="http://www.w3.org/2000/svg" xmlns:xlink="http://www.w3.org/1999/xlink" x="0px" y="0px"
	 width="96.95px" height="64px" viewBox="0 0 138.3 91.3" style="enable-background:new 0 0 138.3 91.3;" xml:space="preserve">
<style type="text/css">
	.st0{fill:#1E6D7A;stroke:#FCFCFC;stroke-width:6;stroke-miterlimit:10;}
	.st1{fill:#1E6D7A;stroke:#000000;stroke-width:2;stroke-miterlimit:10;}
	.st2{fill:#FFFFFF;stroke:#000000;stroke-width:2;stroke-miterlimit:10;}
	.st3{fill:#FFFFFF;}
	.st4{fill:#DDDDDD;stroke:#3366FF;stroke-width:2;stroke-miterlimit:10;}
	.st5{fill:#FFFFFF;stroke:#3366FF;stroke-width:2;stroke-miterlimit:10;}
	.st6{fill:#FFFFFF;stroke:#FFFFFF;stroke-width:4;stroke-miterlimit:10;}
	.st7{fill:#FFFFFF;stroke:#000000;stroke-miterlimit:10;}
	.st8{fill:#3366FF;stroke:#DDDDDD;stroke-width:2;stroke-miterlimit:10;}
	.st9{fill:#3366FF;}
	.st10{fill:#3366FF;stroke:#6B6B6B;stroke-width:2;stroke-miterlimit:10;}
</style>
<circle class="st10" cx="98.5" cy="32.6" r="16.6"/>
<circle class="st10" cx="47.8" cy="19.3" r="16.6"/>
<circle class="st10" cx="104.8" cy="72.5" r="16.6"/>
<circle class="st10" cx="21.4" cy="55.9" r="16.6"/>
<g>
	<path class="st3" d="M28.6,65.6l-0.3,0l-0.8,0c-0.6,0.1-1.2,0.1-1.4,0.1h-0.5l-0.4-0.1l-0.9,0h-1c-0.4,0-0.9,0-1.5-0.2
		c-2.1-0.3-3.9-1.6-4.8-3.4l-1.1-2.1l1-2.7c0.2-0.5,0.4-1,0.7-1.4l0.2-0.5L18,55c0.2-0.5,0.4-1.1,0.8-1.7c0.2-0.6,0.4-1.1,0.8-1.7
		l0.1-0.2l0.1-0.1l0.1-0.3l0.5-0.9c0.2-0.4,0.4-0.6,0.5-0.9L21,49c0.2-0.4,0.4-0.7,0.6-1c0.2-0.5,0.4-1.1,0.8-1.6l0.1-0.2l0-0.1
		l0.1-0.2l0.6-1.1l0.5-1.2l0.4-0.8c0.2-0.6,0.5-1.2,0.9-1.7l0.2-0.2l0.8-2.2l0.4-0.4l0.1-0.2l0.2-0.3l0.6-1l0.1-0.6l0.4-0.8l0.1-0.3
		c0.2-0.5,0.5-1,0.8-1.3l0.1-0.3l0.4-0.7l0.4-1l0.4-0.7l0,0l0.4-1c0.2-0.6,0.6-1.2,1-1.8l0.3-0.7l0.7-1l0.1-0.2l1.1-1.4l2.3-1.1
		l1.3,0c2.2,0,4.2,1.3,5.2,3.3l0.6,1c0.2,0.2,0.3,0.5,0.5,0.9l0.2,0.3l0.4,0.8l0.3,0.7l0.2,0.4c0.2,0.3,0.3,0.7,0.5,1.2l0.4,0.6
		l0.6,1.2l0.6,0.9l0.4,0.9l0.4,0.9l0.1,0.2c0.3,0.3,0.5,0.7,0.6,1.1l0.2,0.3l0.6,1.5l0,0.1l0.4,0.6l0.1,0.2l0.3,0.5l0.4,0.7l0.6,1.3
		l0.1,0.1l0.5,0.9l0.1,0.4l0.4,1l0.2,0.5l0.3,0.6l0.7,1.1l0.1,0.2c0.2,0.5,0.4,0.8,0.5,1.1l0.1,0.2l0.1,0.2l0.2,0.3l0.3,0.7l0.4,0.8
		l0.2,0.6l0.7,1.2l0.3,0.6l0.2,0.3c0.6,0.7,0.8,1.4,0.9,1.7l0.2,0.6l1.1,2.6l-1,2.3c-0.2,0.4-0.6,1.3-1.2,2l-0.4,0.4l-0.4,0.4
		c-1.7,1.4-3.6,1.4-4.2,1.4l-1.3,0l-0.1,0l-0.5,0.1H48l-0.3-0.1l-0.7,0l-0.5-0.1l-0.4,0l-0.6,0l-0.2,0l-0.6,0
		c-1.3,0-2.6-0.4-3.8-1.1l-0.2-0.1l-0.2-0.1c-0.4-0.3-1.1-0.8-1.6-1.6l-0.2-0.2L38.6,62l-0.2-0.3l-0.4,0c-0.2,0-0.8,0-1.5-0.2
		l-0.1,0c-0.1,0.1-0.2,0.3-0.2,0.4l-0.5,1.4l-2.1,1.3c-0.9,0.6-1.9,0.9-3,1.1l-0.7,0.1L28.6,65.6z"/>
	<path class="st9" d="M43.4,59.2L43.3,59l-0.5-0.8L42.7,58c0-0.1-0.1-0.2-0.1-0.4l-0.2-0.8l-0.2-0.5l-0.7-0.4L40.8,56l-1,0.1
		l-0.4,0.1l-0.9,0H38c-0.1,0-0.2,0-0.3,0L37,56h-0.5h-1.1h-0.5l-1,0h-0.6l-0.8,0.3l-0.1,0.5L32,57.8L31.9,58l-0.2,0.4
		c-0.1,0.4-0.3,0.7-0.5,0.8L31,59.6l-0.4,0.3c-0.3,0.2-0.5,0.3-0.8,0.3l-1-0.1l-0.5,0l-0.9,0l-0.5,0l-0.2,0c-0.2,0-0.4,0-0.5,0
		l-0.3,0l-0.4,0l-1.1,0h-1c-0.1,0-0.2,0-0.3,0L22.7,60c-0.3,0-0.6-0.1-0.7-0.4l0.2-0.5c0-0.1,0.1-0.2,0.2-0.3l0.2-0.3l0.4-0.8
		l0.2-0.4l0.2-0.6c0-0.2,0.1-0.4,0.3-0.5l0.2-0.2l0.4-0.8l0-0.2c0-0.2,0.2-0.5,0.3-0.7l0.4-0.5l0.2-0.5l0.3-0.6
		c0.1-0.2,0.2-0.3,0.3-0.5l0.1-0.2l0.3-0.7c0.1-0.2,0.2-0.3,0.3-0.4l0.2-0.2l0.4-0.8l0-0.2c0-0.2,0.2-0.5,0.3-0.7l0.3-0.5l0.2-0.5
		l0.4-0.8l0.2-0.4l0.3-0.9l0.1-0.3l0.5-0.9l0,0c0-0.3,0.2-0.5,0.3-0.8l0.3-0.5l0.2-0.5l0.4-1l0.2-0.5c0,0,0.1-0.1,0.1-0.2l0.5-0.8
		l0.2-0.3l0.5-0.8l0.3-0.5l0.3-0.8l0-0.2c0-0.1,0.1-0.2,0.2-0.3l0.2-0.4c0.1-0.2,0.3-0.4,0.5-0.6l0.1-0.1l0.3-0.9l0.3-0.5l0.3-0.8
		l0.3-0.4l0.5-0.8l0.1-0.5l0.2-0.5c0.1-0.3,0.3-0.6,0.5-0.8l0.4-0.8l0.2-0.3c0,0,0.1-0.2,0.2-0.2l0.4-0.5c0.1,0,0.2,0.1,0.3,0.3
		l0.3,0.6l0.4,0.7c0,0.1,0.1,0.2,0.2,0.3l0.1,0.2l0.2,0.4l0.5,0.9l0.2,0.3l0.2,0.5c0.2,0.3,0.3,0.6,0.3,0.9l0.4,0.7l0.3,0.5l0.5,0.9
		l0.2,0.4l0.6,0.9l0.2,0.5l0.4,0.9l0.2,0.4l0.4,0.7c0,0.1,0.1,0.1,0.2,0.2l0.1,0.3l0.4,1l0.1,0.5l0.5,0.9l0.2,0.4l0.5,0.8l0.2,0.3
		l0.4,0.9l0.1,0.3l0.5,0.8c0,0.1,0.1,0.2,0.1,0.4l0.1,0.1l0.4,0.9l0.3,0.6l0.5,1l0.2,0.3l0.4,0.7c0.1,0.2,0.1,0.3,0.2,0.4l0,0.2
		l0.4,0.9l0.2,0.4l0.4,0.8l0.3,0.5l0.3,0.9l0.3,0.4l0.5,0.8l0.2,0.5l0.5,0.9l0.1,0.1c0.1,0.1,0.2,0.3,0.3,0.5l0.3,0.6l0.2,0.4
		c0,0-0.2,0.5-0.4,0.7C51.8,60,51.5,60,51.3,60h-0.5c-0.1,0-0.3,0-0.3,0l-0.3,0l-1,0.1l-0.3,0c-0.1,0-0.1,0-0.2,0l-0.9,0l-0.5-0.1
		l-1,0h-0.5l-0.4,0l-0.5,0c-0.3,0-0.6,0-1-0.3C43.8,59.6,43.5,59.4,43.4,59.2z M36.9,46.2l-0.3,0.5l-0.4,0.9l-0.2,0.6L35.8,49
		l-0.1,0.3l-0.1,0.5l0.3,0.5l0.5-0.1l1.1,0.1l0.9,0h0.6l0.2-0.7L39,49.2l-0.4-1.1l-0.2-0.4l-0.5-1l-0.2-0.5l-0.2-0.6l-0.5,0.1
		L36.9,46.2z"/>
	<path class="st3" d="M65,66.1c-0.3,0-0.6,0-1-0.1h-0.3l-0.3,0l-0.7,0.1l-1.3-0.2c-0.8,0-1.6-0.2-2.4-0.5l-1.2-0.5l-1-0.5l-0.6-0.3
		L56,64c-0.8-0.4-1.4-0.9-2-1.5l-0.4-0.4l-0.2-0.3l-0.8-1l0-0.1c-0.3-0.4-0.6-0.8-0.8-1.3l-0.4-0.9l-0.1-0.3
		C51.1,58,51,57.7,51,57.4l-0.1-0.3l-0.1-0.8l-0.2-0.8l-0.2-1.5l0-0.5l-0.1-0.5v-1l0-0.3l0-1l0.1-1.1c-0.3-0.3-0.6-0.6-0.9-0.9
		c-0.8-1-1.3-2.2-1.5-3.5l-0.1-0.7l0.1-1l-0.1-0.8v-1.9L48,40v-0.3l0-0.2v-0.1l0.4-1.8l0.4-0.7c0.4-0.7,0.9-1.4,1.5-1.9
		c0-0.1,0-0.3,0-0.4V33l0.3-0.9c0.1-0.2,0.2-0.6,0.5-1.2c1.2-2.3,3.5-3.7,5.9-3.8l1.5-0.1h0.9l0.4,0.1c0.2,0,0.4,0,0.6,0
		c0.3,0,0.7,0,1,0.1l0.5-0.1l1.5,0.2c0.6,0.1,1.1,0.2,1.5,0.3c1.2,0.4,3.5,1.5,4.5,4.5c0.2,0.6,0.3,1.2,0.3,1.6
		c0.7,0.2,1.3,0.5,1.9,0.8l3.3,1.9l-0.3,3.8v1l0,0.2l0,0.5l0.1,1.3v1c0,0.8-0.1,1.4-0.2,1.8L74,48.3L73,49l2.2,1.6v2.7
		c0,0,0.1,0.6,0.1,0.6v1.2c0,0.3,0,0.5,0,0.9l0,0.4l0,0.9c0.2,0.9,0.2,1.8,0,2.7l-0.2,1.1L74.6,62c-0.8,1.4-1.9,2.4-3.2,3
		c-0.4,0.2-0.8,0.3-1.3,0.4l0,0l-1.4,0.2L67.3,66l-1.5,0.1C65.5,66.1,65.2,66.1,65,66.1z"/>
	<path class="st9" d="M53.5,44.4l0.1-1L53.5,43l0-0.5v-1.4l0.1-0.9c0-0.1,0-0.2,0-0.3l0.1-0.4c0.2-0.4,0.5-0.5,0.8-0.6l0.9-0.1
		l0.5-0.5l0.1-0.5l0-1l0.1-0.5l0-1v-0.1c-0.1-0.3-0.1-0.5-0.1-0.8v-0.6c0-0.1,0.1-0.3,0.2-0.5c0.3-0.5,0.8-0.8,1.2-0.8h0l1.4-0.1
		c0.1,0,0.3,0,0.4,0l0.7,0.1H60c0.3,0,0.5-0.1,0.8,0l0.6,0.1l0.6-0.1l1,0.1c0.1,0,0.2,0,0.4,0.1c0.5,0.2,0.8,0.6,0.9,1
		c0,0.1,0,0.3,0,0.4l0,0.6l0.1,0.5l0,0.7c0,0.2,0,0.3,0,0.4l0,0.4L64.2,38l0.2,0.4L65,39h0.5l0.8-0.1c0.2,0,0.5,0,0.8,0.1l1,0l0.1,0
		c0.3,0,0.5,0.1,0.8,0.3l0.3,0.2l0,0.5c0,0,0,0.1,0,0.1v0.4l0,0.8l0,0.6l0.1,1l0,0.5v0.8c0,0.2,0,0.3-0.1,0.4L69,45
		c-0.4,0.3-0.8,0.4-1.1,0.4l-1,0.1l-0.5,0.2l-0.6,0c-0.3,0-0.6,0-0.8-0.1l-0.1,0l-0.6,0.5l0,0.5v1l0.2,0.5v1l0,0.5v1
		c0.2,0.3,0.2,0.7,0.2,1l0.2,0.5l0.1,0.5l0.8,0.5l0.5,0.1l0.6,0.1h0c0.3,0,0.6,0,0.8,0.2l0.1,0l1-0.3c0.4-0.1,0.7,0,1,0.2v0.3
		c0,0.1,0,0.2,0,0.3l0,0.3v0.8c0,0.2,0,0.3,0,0.4l0,0.4l0.1,0.8c0,0.2,0,0.3,0,0.5l0,0.2l0.1,0.9c0,0.2,0.1,0.4,0,0.6l0,0.2
		c-0.3,0.4-0.5,0.7-0.8,0.8c-0.1,0.1-0.2,0-0.3,0.1l-0.8,0.1l-0.5,0.1l-1.1,0.3l-0.5,0l-0.6,0c-0.3,0-0.5,0-0.8,0h-0.5l-0.5,0
		l-0.4,0l-1-0.2h-0.3c-0.2,0-0.4,0-0.6-0.1L60.6,60l-0.4-0.2l-1-0.5L58.5,59c-0.2-0.1-0.4-0.3-0.6-0.4l-0.1-0.1l-0.6-0.8l0-0.1
		c-0.2-0.2-0.4-0.5-0.5-0.7l-0.2-0.5c0-0.1-0.1-0.3-0.1-0.4l-0.2-0.8l-0.1-0.5l-0.1-1l0-0.5l0-0.4c0-0.2,0-0.3,0-0.4l0-0.4l0-1
		l0-0.4l0.1-0.9V49l0-1.1l-0.2-1L55.7,46l-0.5-0.4H55c-0.6,0-1-0.2-1.2-0.4C53.6,45,53.5,44.7,53.5,44.4z"/>
	<path class="st3" d="M78.6,65.7c-0.2,0-0.3,0-0.5,0h-0.3l-0.7-0.1l-0.3-0.1h-2.6l-1.4-1c-0.2-0.2-0.9-0.6-1.4-1.2
		c-1-1-2.2-2.8-1.9-5.7l0-0.2v-0.5l-0.1-0.5v-1.3l0-0.5l-0.1-1.3l0-0.7l0-1v-0.3l0-1.3l0-1.1c0-0.2,0-0.6,0.1-1.1l0-0.2v-1.3l0,0
		l0-0.3c0-0.5,0.1-1,0.1-1.3l-0.1-0.4l-0.1-1v-0.2c0-0.4,0-0.7,0.1-1l0-0.3l-0.1-0.4l0.1-2.1l0-0.2l-0.1-0.3v-2.2l0-0.3l0-0.4
		l-0.1-0.5v-1.2c0-0.7,0.1-1.4,0.2-2.1l0-0.2l-0.1-2.7l1-1.5c0.4-0.6,1-1.4,1.7-2.1l0.1-0.1l0.2-0.1c1-0.8,2.3-1.2,3.7-1.3l1.1-0.1
		l0.6,0.1l0.6-0.1l1.5,0l0.3,0c0.4-0.1,0.7-0.1,1.1-0.1c0.4,0,0.8,0,1.2,0.1l0.4,0.1c0.4,0,0.9,0.1,1.5,0.3c2,0.6,3.5,1.9,4.3,3.9
		c0.6,1.5,0.6,2.7,0.5,3.6c0,0.4,0,0.7,0,1.1l-0.1,1.3l0.1,0.4l-0.1,1.7v0.4L89,37.3v0.3c0,0.2,0,0.4,0,0.6c0.1,0.4,0.1,0.8,0.1,1
		l0.1,0.3l0,0.2c0.1,0.5,0.1,1.3,0,2.1l0.1,1.7c0,0.2,0,0.5,0,0.7v0.1l-0.1,0.4l0,0.5l0,0.4l0.1,1.4l-0.1,0.8l0,0.4l0,0.1
		c0.2,0.7,0.2,1.6,0.1,2.4v1l-0.1,0.4c0,0.2,0,0.3-0.1,0.5l0.1,1v0.6l0.1,0.3l0.1,0.9v0.8l0.1,1.4l-0.1,1c0,0.4-0.1,0.8-0.1,1
		c-0.2,2-1.3,3.8-3,4.8c-1.1,0.7-2.3,1-3.6,1h-1.6l-0.7,0l-1,0.1C79,65.7,78.8,65.7,78.6,65.7z"/>
	<path class="st3" d="M95.7,66.1c-0.3,0-0.6,0-0.9-0.1l-0.3,0H94c-0.2,0-0.3,0-0.5,0c-0.7,0-1.2-0.1-1.5-0.2l-0.6-0.1l-0.2-0.1
		c-0.4-0.1-0.8-0.2-1.4-0.5l-0.3-0.1l-0.8-0.4c-0.3-0.1-0.5-0.2-0.7-0.3l-0.3-0.1l-0.8-0.5c-0.4-0.3-1-0.7-1.6-1.5l-0.7-0.7
		l-0.2-0.3c-0.1-0.2-0.3-0.4-0.5-0.7l-0.5-0.8l-0.5-1.2c-0.3-0.7-0.5-1.4-0.6-2.2l0-0.2l0-0.5l-0.2-1.1v-1.5l0.1-0.5
		c0.1-0.5,0.2-1,0.3-1.3l0.3-1.1l0.6-1.3l0.2-0.3c0,0,0.5-0.9,0.6-1l-0.3-1l0.1-1.7c0-0.3,0.1-0.7,0.1-1.1v-0.3c0-0.1,0-0.3,0-0.5
		l-0.1-0.5v-0.7l-0.1-0.9v-1.9l0-0.1V37l2.4-1.6c0.8-0.7,1.7-1.1,2.8-1.4l0.7-0.2l0.1,0c0.5-0.1,0.9-0.2,1.3-0.2l0.5-0.1
		c0.7-0.2,1.4-0.4,2.2-0.4l1.4,0h1.1l0.2,0l0.3-0.1h0.2c0.3,0,0.7-0.1,1-0.1c0.4,0,0.8,0,1.1,0.1l0.3,0c0.5,0,1,0,1.7,0.2l0.2,0.1
		l2.2,0.5l0.2,0.1c0.3,0.1,0.7,0.2,1.1,0.4l0.6,0.2l0.3,0.1c0.4,0.2,1.1,0.4,1.9,1.1l1.2,0.7l0.5,0.5c0.3,0.2,0.6,0.5,0.8,0.9
		l0.5,0.6l0.6,0.9l0.3,0.6l0.1,0.3c0.5,0.7,0.8,1.5,1,2.3l0,0.1c0.3,0.7,0.5,1.6,0.5,2.8v0.3l0,0.3c0.2,0.8,0.2,1.7,0,2.6V49l0,0.9
		v0.1c0,0.3,0,0.6-0.1,1l0,0.1c0,0.2,0.1,0.5,0.1,0.8v0.4l-0.1,1l0.1,1.3l0,0.6c0.2,1.1,0,2,0,2.4l-0.1,0.3l0,0.5
		c0.2,2-0.7,4-2.7,5.6c-1.2,1-2.6,1.5-4.3,1.5h0l-0.1,0l-1.4,0.2h-1l-0.3,0l-0.9,0l-0.7-0.1l-1,0c-0.5,0-1.1-0.1-1.6-0.2
		c-0.5,0.2-1,0.3-1.4,0.4l-0.6,0.1L96.9,66C96.6,66.1,96.2,66.1,95.7,66.1z"/>
	<path class="st3" d="M121.3,66.2c-0.3,0-0.9,0-1.6-0.1c-0.1,0-0.2,0-0.2,0c-0.2,0-0.5,0-0.7,0h-0.3c-0.3,0-0.5,0-0.8,0
		c-0.6,0-1.3-0.1-1.9-0.3l-0.3-0.1l-1.5-0.2l-1-0.3l-1.4-0.3l-0.6-0.3c-1.3-0.7-2.4-1.7-3.1-3c-0.4-0.7-0.6-1.4-0.7-1.9l-0.3-1
		l0.2-1.7l0-0.1c0-0.3-0.1-0.6-0.1-1v-1.4l0-0.4l0-1.1l0-0.4c0.1-0.7,0.3-1.4,0.5-2.1l-0.2-0.4c-0.1-0.3-0.2-0.5-0.3-0.9l-0.2-0.7
		l-0.2-1.7l-0.1-0.8l0-1l0.1-1.3l0.2-1.1c0.1-0.5,0.2-0.9,0.3-1.2l0.1-0.5l0.4-0.9c0.1-0.3,0.3-0.8,0.7-1.3l0.4-0.8l1.4-1.3l0.5-0.5
		l1.3-0.9l0.4-0.2c0.7-0.5,1.4-0.9,2.3-1.1l0.1-0.1l1.3-0.4l0.2-0.1l0.2-0.1c0.8-0.3,1.5-0.3,2-0.3l1.2-0.1l0.2,0c0.2,0,0.4,0,0.6,0
		c0.3,0,0.6,0,0.8,0l0.3,0c0.4,0,0.8,0,1.1,0.1c0.1,0,0.2,0,0.3,0c0.4,0,0.8,0,1.2,0.1l0.2,0l0.7,0.1c0.3,0,0.6,0.1,1,0.2
		c0.7,0.1,1.2,0.2,1.5,0.3l0.3,0.1l0.4,0.1l0.4,0.1c0.3,0.1,0.7,0.2,1.2,0.5l0.3,0.2l0.5,0.3l0.3,0.2c1.9,1.5,2.8,3.7,2.6,5.9l0,0.2
		v0.5c0,0.3,0,0.9-0.1,1.6l0,0.1v0.4l0.1,0.8l-0.1,1.3c0,0.5-0.1,0.9-0.2,1.3c0.2,0.3,0.4,0.7,0.6,1.3l0.1,0.4l0.2,0.5l0.1,0.4
		c0.1,0.2,0.2,0.4,0.2,0.6l0.2,0.5v0.3l0.1,0.5c0.1,0.7,0.1,1.3,0.1,1.9l0,0.5v0.4c0,0.7-0.1,1.3-0.2,1.6l-0.1,0.5l-0.4,0.9
		l-0.1,0.2c-0.1,0.2-0.1,0.4-0.2,0.6l-0.1,0.4l-0.4,0.7c-0.5,1.2-1.3,2.1-1.7,2.5l-0.3,0.3l-0.7,0.6l-0.4,0.3
		c-0.7,0.7-1.5,1.2-2,1.4l-0.3,0.1l-0.5,0.2l-0.3,0.1l-0.3,0.1l-1,0.5l-0.9,0l-0.5,0.1l-0.9,0.3l-1.1,0.3h-0.2c-0.2,0-0.4,0-0.7,0
		H121.3z"/>
	<path class="st9" d="M124.4,47.5l1,0.4l0.8,0.4c0.2,0.1,0.3,0.2,0.5,0.3l0.1,0.1l0.8,0.6h0c0.3,0.2,0.5,0.4,0.8,0.6l0,0
		c0.1,0.2,0.2,0.3,0.3,0.6l0,0.3l0.4,0.9l0.1,0.3c0,0,0.1,0.2,0.1,0.2l0.1,0.4c0,0.3,0,0.4,0,0.6l0,0.1l0,0.5l0,0.5v0.2
		c0,0.2,0,0.4-0.1,0.6l-0.3,0.6l-0.1,0.3c0,0.1-0.1,0.2-0.1,0.3l-0.4,0.7c0,0.3-0.3,0.5-0.6,0.9l-0.2,0.2l-0.4,0.3l-0.7,0.5l0,0.1
		c-0.2,0.2-0.4,0.3-0.7,0.5l-0.5,0.2l-0.4,0.2l-0.3,0.1c-0.1,0-0.2,0-0.3,0l-0.8,0.2l-0.4,0.1l-1,0.3l-0.3,0.1c-0.1,0-0.2,0-0.3,0
		h-0.5c-0.2,0-0.5,0-0.7-0.1h-0.1l-0.6-0.1h-0.1c-0.2,0-0.5,0-0.7,0h-0.2H118c-0.3,0.1-0.6,0-0.9,0l-0.5-0.1l-0.5-0.1l-0.8-0.1
		c-0.1,0-0.2-0.1-0.4-0.1l-0.3-0.1l-1.1-0.3c-0.3-0.1-0.5-0.3-0.7-0.8c-0.1-0.1-0.1-0.3-0.1-0.4l0-0.2l0.1-0.9l0-0.4l-0.1-0.8
		c0-0.1,0-0.2,0-0.3v-0.3v-0.8l0-0.5l0-1c0-0.4,0.2-0.7,0.4-0.9l0.5,0.2h0l0.5,0.2l0.8,0.4l0.4,0.2l0.6,0.1c0.2,0,0.4,0.1,0.6,0.3
		l1,0.1l0.5,0l0.5,0l0.5,0.1l0.6,0l0.4,0.1l0.5,0l0.5-0.4l-0.2-0.3l-0.5-0.6l-0.6-0.1l-0.5-0.2l-0.4-0.2l-0.5,0l-1-0.3l-0.4-0.2
		c0,0-0.2,0-0.2-0.1l-0.8-0.4l-0.3-0.3l-0.5-0.2l-0.7-0.5l-0.4-0.3l-0.5-0.5c-0.1-0.1-0.2-0.2-0.3-0.4l-0.1-0.1l-0.3-0.8
		c0-0.1-0.1-0.2-0.1-0.4l-0.1-0.3l-0.1-1.1l0-0.5v-0.6l0-1l0.2-0.9c0-0.1,0-0.2,0.1-0.3l0.1-0.3L113,42c0-0.1,0.1-0.3,0.2-0.3
		l0.2-0.3l0.7-0.6l0.3-0.3l0.8-0.6l0.4-0.2l0.3-0.2c0.3-0.3,0.6-0.4,1-0.4l0.3-0.2l1-0.3l0.2-0.1c0.1,0,0.3,0,0.4,0l0.9,0l0.5,0
		l0.3,0c0.2,0,0.4,0,0.6,0l0.2,0l0.3,0c0.2,0,0.3,0,0.5,0l0.7,0.1c0.3-0.1,0.5,0,0.8,0l0.4,0.1l0.2,0c0.2,0,0.4,0,0.5,0.1l0.1,0.1
		l0.8,0.1c0.1,0,0.2,0,0.3,0.1l0.3,0.1l0.7,0.2l0.3,0c0.1,0,0.2,0,0.4,0.1l0.1,0.1c0.4,0.3,0.6,0.7,0.5,1l-0.1,1l0,0.2
		c0,0.2,0,0.3,0,0.5l-0.1,0.5v0.5v0.9l0.1,0.6l-0.1,1c0,0.3-0.1,0.6-0.4,0.8l-0.4-0.3l-0.9-0.3l-0.6-0.2l-1-0.4l-1.2-0.1l-0.5-0.1
		l-1.1,0h-1.1l-0.3,0.5l0.8,0.8l0.4,0.1h0.2c0.2,0,0.4,0,0.6,0.1l0.1,0.1l0.5,0.2l1,0.3L124.4,47.5z"/>
	<path class="st9" d="M82.5,60h-0.9H81l-0.9,0l-0.5,0l-0.6,0c-0.1,0-0.3,0-0.5,0h-0.1l-0.9-0.2h-0.5h-1c0,0-0.4-0.3-0.7-0.6
		c-0.3-0.3-0.3-0.7-0.3-1.1l0.1-0.5l0-0.3v-1L74.9,56v-1l0-0.5l0-1l0-0.7l0-1v-0.4l0-1.2l0-1c0-0.1,0-0.2,0-0.3l0.1-0.5l-0.1-0.9
		c0-0.1,0-0.3,0-0.5l0-0.2l0-0.6c0-0.2,0-0.4,0.1-0.6l0-0.2v-1L75,43.8l0-0.6c0-0.1,0-0.2,0-0.3l0-0.4l0.1-0.9L75,41l0-1l0.1-0.5
		v-1.1L75,38v-1l0-0.4l0-1l0-0.4v-0.9v0c0-0.3,0-0.6,0.2-0.9l0.1-0.9v-0.5l0-1c0,0,0.4-0.6,0.7-0.8c0.2-0.1,0.4-0.2,0.6-0.2l0.6,0
		l0.6,0.1l0.7,0l0.6-0.1l1.4,0l0.7-0.1c0.2,0,0.3,0,0.5,0l0.9,0.1c0.1,0,0.2,0,0.4,0c0.5,0.1,0.7,0.4,0.8,0.7c0.1,0.2,0.1,0.5,0,0.7
		l-0.1,0.6c0,0.2,0.1,0.5,0,0.8v0l0,1.1l-0.1,1l0.1,0.5l0,1c0,0.1,0,0.2,0,0.3l0,0.3v0.7c0,0.2,0,0.3,0,0.5l0,0.2l0.1,0.8
		c0,0.1,0,0.2,0,0.4v0.3l0.1,0.6c0,0.4,0,0.7-0.1,1l0,1.2l0,1c0,0.1,0,0.3,0,0.4l0,0.3l0,1.1l0,0.5l0,1l0,0.4l-0.1,1v0.5l0.1,0.7
		c0,0.2,0,0.5,0,0.7l0,0.3v1l0,0.3c0,0.2,0,0.2,0,0.4l-0.2,0.8l0.2,0.4l0,0.7c0,0.2,0,0.2,0,0.4l0,0.4l0.2,0.9l0,0.3
		c0,0.2,0,0.2,0,0.4v0.1l0,1.1l-0.1,0.8c0,0.2,0,0.3-0.1,0.5l0,0.2c0,0.3-0.1,0.6-0.3,0.8C83,59.9,82.8,60,82.5,60z"/>
	<path class="st9" d="M89.7,46l0-0.7c0-0.2,0-0.3,0.1-0.5l0-0.3v-0.8c0-0.2,0-0.3,0-0.4v-0.1l-0.1-0.8c0-0.2,0-0.2,0-0.4v-0.3
		l-0.1-0.9v-0.3c0-0.1,0-0.1,0-0.2V40l0.2-0.2c0.3-0.3,0.6-0.4,0.9-0.5l0.7-0.2c0.2,0,0.4,0,0.5,0l0.2,0l1-0.1l0.3-0.1
		c0.3-0.1,0.5-0.2,0.8-0.2l1.3,0h1l0.6,0l0.5-0.1h0.1c0.2,0,0.6-0.1,0.8,0l0.1,0l1,0h0.1c0.2,0,0.4,0,0.6,0l2,0.5
		c0.1,0,0.3,0.1,0.4,0.2l0.3,0.1l0.9,0.3l0.1,0c0.2,0.1,0.5,0.2,0.6,0.3l0.1,0.1l0.8,0.4l0.3,0.2c0.1,0.1,0.3,0.2,0.3,0.3l0.4,0.5
		l0.3,0.4c0,0.1,0,0.1,0.1,0.2l0.3,0.7l0.2,0.2c0.1,0.2,0.3,0.4,0.3,0.6l0.2,0.7c0.2,0.3,0.2,0.6,0.2,1l0,0.4l0.1,0.5l0,0.4l0,0.2
		c0,0.2,0,0.4,0,0.6l-0.1,0.3v0.9v0.4l0,0.9c0,0.2,0,0.2,0,0.4l-0.1,0.3l0.1,0.7c0,0.2,0,0.2,0,0.4l0,0.3l-0.2,1l0.1,0.5l0.1,0.8
		l0,0.4l0,0.9l0,0.2c0,0.3,0,0.4,0,0.6l-0.1,0.5v0.7l0,1c0,0-0.3,0.5-0.7,0.7c-0.2,0.2-0.5,0.2-0.8,0.2l-0.7,0l-0.6,0.2l-0.7,0.1
		c-0.1,0-0.3,0-0.4,0l-0.4,0l-1,0l-0.5,0l-1.2,0c-0.2,0-0.6-0.1-0.9-0.3l-0.2-0.1v-0.8v-0.8l-0.4,0.3l-0.4,0.3l-0.3,0.4l-0.7,0.7
		l-0.2,0.1c-0.1,0.1-0.2,0.1-0.3,0.2l-0.7,0.3c-0.1,0.1-0.3,0.1-0.5,0.1l-0.4,0.1l-0.6,0.1c-0.3,0-0.5,0-0.7,0h0l-0.5,0l-0.5,0h-0.5
		h-0.1c-0.2,0-0.4,0-0.6,0l-0.3,0c-0.1,0-0.3,0-0.4-0.1l-0.2-0.1l-1-0.4l-0.1,0c-0.2-0.1-0.3-0.2-0.5-0.3l-0.4-0.3
		c-0.2-0.1-0.3-0.2-0.4-0.3l-0.1-0.2l-0.5-0.6C89.1,58,89,57.9,89,57.8l-0.3-0.4l-0.3-0.9l0-0.1c-0.1-0.2-0.2-0.5-0.2-0.8l0-0.5
		l-0.1-0.9v-0.6l0-0.3c0-0.1,0-0.3,0.1-0.5l0.2-0.6l0.2-0.4c0-0.1,0.1-0.1,0.1-0.2l0.5-0.8c0-0.1,0.1-0.2,0.2-0.3l0.6-0.7l0.3-0.3
		c0.1-0.1,0.2-0.2,0.3-0.2l0.7-0.6l0.3-0.2c0.1-0.1,0.3-0.2,0.4-0.2l0.8-0.3l0.1,0c0.2-0.1,0.5-0.2,0.7-0.3l0.6-0.1l0.5,0l1-0.3
		l0.4-0.1c0.1,0,0.3-0.1,0.4-0.1h0.5c0.1,0,0.3,0,0.4,0l0.3,0h0.8c0.1,0,0.3,0,0.4,0.1l0.2,0h0.5l0.1-0.5l-0.4-0.6l-0.8-0.6
		l-1.7-0.2h-0.4h-0.1c-0.3,0-0.5,0-0.8,0l-0.2-0.1l-0.9,0.3l-0.6,0.2l-1.2,0.3l-0.4,0.1l-0.9,0.3c-0.1,0-0.2,0-0.3,0.1l-0.3,0
		l-0.4,0.2L90,46.6C89.8,46.4,89.7,46.3,89.7,46z M98.9,53.1l0.3-0.8l0.2-0.6l-0.5-0.5L98.5,51l-1,0.2L97,51.4L96.4,52l-0.1,0.5v0.5
		l0.1,0.4l0.5,0.4h0.5l0.5,0l0.8-0.5L98.9,53.1z"/>
</g>
</svg>
